<svg xmlns="http://www.w3.org/2000/svg" viewBox="0 0 158.31 158.31"><defs><style>.cls-1{fill:none;}.cls-2{fill:#231f20;}</style></defs><title>cotton-black</title><g id="Layer_2" data-name="Layer 2"><g id="Layer_1-2" data-name="Layer 1"><path d="M79.15,158.31a79.16,79.16,0,1,1,79.16-79.16A79.25,79.25,0,0,1,79.15,158.31ZM79.15,3a76.16,76.16,0,1,0,76.16,76.15A76.24,76.24,0,0,0,79.15,3Z"/><path class="cls-1" d="M106.77,58.73a29.33,29.33,0,0,0,.68-6.25,28.29,28.29,0,1,0-56.58,0,29.17,29.17,0,0,0,.68,6.24,23,23,0,1,0,27.6,22.5h0a22.68,22.68,0,1,0,27.61-22.49Z"/><path class="cls-2" d="M101.84,105.77a24.26,24.26,0,0,1-22.69-16,24.13,24.13,0,0,1-46.86-8.5,24.67,24.67,0,0,1,17.52-23.6,29.65,29.65,0,0,1-.44-5.14A30.05,30.05,0,0,1,79.16,22.23C95.58,22.23,109,35.8,109,52.48a30.87,30.87,0,0,1-.44,5.15A24.65,24.65,0,0,1,126,81.22,24.4,24.4,0,0,1,101.84,105.77Zm-22.59-26h1.41v1.5a21.18,21.18,0,1,0,25.78-21L105,59.86l.31-1.45a27.76,27.76,0,0,0,.65-5.93,26.79,26.79,0,1,0-53.58,0A27.59,27.59,0,0,0,53,58.4l.32,1.46-1.45.33a21.58,21.58,0,0,0,4.59,42.58A21.39,21.39,0,0,0,77.65,81.22V80.14L79,79.69Z"/><path class="cls-2" d="M99.55,92.07a47,47,0,0,0-12,8.37,46.77,46.77,0,0,0,1.22-14.59c-1.3-21.16-9.57-27.3-9.57-27.3s-8.26,6.14-9.57,27.3a46.77,46.77,0,0,0,1.22,14.59,46.91,46.91,0,0,0-12-8.37c-19-9.45-28.43-5.36-28.43-5.36s1.19,10.23,18.86,21.94c14.89,9.86,26,7.54,29.06,6.57v19.35h1.81V115.22c3.11,1,14.17,3.29,29.06-6.57C126.79,96.94,128,86.71,128,86.71S118.52,82.62,99.55,92.07Z"/><path class="cls-2" d="M80.56,135.07H77.75V115.88c-3.83,1-14.66,2.58-28.84-6.82-17.65-11.7-19-21.86-19.08-22.29l0-.37.34-.15c.4-.17,9.89-4.07,28.85,5.38a48.48,48.48,0,0,1,11,7.32,48.71,48.71,0,0,1-.85-13.13c1.3-21.15,9.42-27.42,9.76-27.67l.3-.23.3.23c.35.25,8.47,6.52,9.77,27.67a49,49,0,0,1-.85,13.12,48.56,48.56,0,0,1,11-7.31c19-9.45,28.45-5.55,28.84-5.38l.35.15-.05.37c-.05.43-1.42,10.59-19.08,22.29-14.17,9.4-25,7.85-28.83,6.82Zm-1.81-1h.81V114.54l.65.2c3,.94,13.91,3.24,28.63-6.51C124.15,98.09,127,89,127.4,87c-1.91-.6-11.19-2.71-27.63,5.48h0a46.4,46.4,0,0,0-11.92,8.28l-1.28,1.25.45-1.73a46.73,46.73,0,0,0,1.2-14.44c-1.13-18.33-7.59-25.31-9.07-26.67-1.47,1.36-7.94,8.34-9.07,26.67a46.72,46.72,0,0,0,1.21,14.44l.44,1.73-1.27-1.25a46.75,46.75,0,0,0-11.92-8.28C42.1,84.33,32.82,86.44,30.9,87c.45,2,3.26,11,18.57,21.19,14.71,9.75,25.64,7.45,28.63,6.51l.65-.2Z"/></g></g></svg>