<svg xmlns="http://www.w3.org/2000/svg" viewBox="0 0 158.31 158.31"><defs><style>.cls-1{fill:#231f20;}</style></defs><title>fsc-black</title><g id="Layer_2" data-name="Layer 2"><g id="Layer_1-2" data-name="Layer 1"><path class="cls-1" d="M79.15,158.31a79.16,79.16,0,1,1,79.16-79.16A79.25,79.25,0,0,1,79.15,158.31ZM79.15,3a76.16,76.16,0,1,0,76.16,76.15A76.24,76.24,0,0,0,79.15,3Z"/><path class="cls-1" d="M92.06,89.2V99.68a3.42,3.42,0,0,1-3.54,3.53H73.64a3.47,3.47,0,0,1-3.38-2.54,2.28,2.28,0,0,1-.05-.58V88.53l-1.61.19-4.13.53a19.76,19.76,0,0,1-2.16.22,3.36,3.36,0,0,1-3.46-2.8,3.43,3.43,0,0,1,2.85-3.82c1.38-.13,2.75-.35,4.13-.52L70,81.84c1-.12,1.9-.21,2.85-.36a3.24,3.24,0,0,1,4,3.29c0,3.76,0,7.53,0,11.29v.5h8.59V96.1c0-3.8,0-7.6,0-11.4a3.35,3.35,0,0,1,3.89-3.3,16.26,16.26,0,0,1,5.15,1.65,22.1,22.1,0,0,0,4.83,1.79,10.35,10.35,0,0,0,8.77-1.66,9.49,9.49,0,0,0,3.9-6.75,10.35,10.35,0,0,0-3.72-9.12A22.37,22.37,0,0,0,103.11,64l-.3-.17c3.63-4,4.55-8.47,2.34-13.37a11.2,11.2,0,0,0-10.23-7c0-.48-.07-1-.11-1.48a13.29,13.29,0,0,0-4-8.72,13.73,13.73,0,0,0-7.46-3.76,13.39,13.39,0,0,0-12,3.82,35,35,0,0,0-6.24,8.38,99.86,99.86,0,0,0-6.87,15.6c-2.5,7-4.57,14.07-6.39,21.24-1.18,4.64-2.25,9.3-3.37,14a4.1,4.1,0,0,1-2,2.81,3,3,0,0,1-3.21-.16,4.92,4.92,0,0,1-.92-.73L27.52,79.62a3.27,3.27,0,0,1-.74-3.75A3.48,3.48,0,0,1,30,73.8a2.86,2.86,0,0,1,1.92.83c1.37,1.32,2.72,2.66,4.07,4l6.82,6.81.29.26c.37-1.38.72-2.71,1.07-4,2-7.72,4-15.44,6.48-23a117.85,117.85,0,0,1,6.87-17.27,51,51,0,0,1,6.08-9.55A25.72,25.72,0,0,1,73,24.35a18.57,18.57,0,0,1,6.63-1.63,20.33,20.33,0,0,1,21.2,14.87.6.6,0,0,0,.39.46,18.08,18.08,0,0,1,9.92,9.05A18,18,0,0,1,112,61.47a.44.44,0,0,0,.19.6,16.16,16.16,0,0,1,6.26,10.05,15.92,15.92,0,0,1-5.12,15.38,16.64,16.64,0,0,1-8.23,4.07,17.43,17.43,0,0,1-7.33-.25,19.47,19.47,0,0,1-5.48-2A1,1,0,0,0,92.06,89.2Z"/><path class="cls-1" d="M52.53,121.78c1.13,0,2.25,0,3.36,0a13.29,13.29,0,0,0,2.25-.41,1.4,1.4,0,0,0,1.09-1.23,8.6,8.6,0,0,1,.46-1.65,1.29,1.29,0,0,1,1.9-.28.93.93,0,0,1,.16.57c0,1.44,0,2.87,0,4.3,0,1.16.1,2.31.17,3.47,0,.61-.17.85-.78.92-.83.1-1.19-.17-1.36-1-.08-.36-.17-.71-.26-1.06a2,2,0,0,0-1.92-1.65c-1.68-.08-3.37-.1-5.09-.15,0,.19,0,.3,0,.41,0,2.34.09,4.69.13,7a.62.62,0,0,0,.51.68,8.19,8.19,0,0,0,1.3.21c.75.05,1.51,0,2.26.09s1,.4,1,1a.72.72,0,0,1-.71.78c-.38,0-.77,0-1.16,0l-11.75,0c-.86,0-1.12-.24-1.06-1a.77.77,0,0,1,.78-.77c.46-.05.93,0,1.4-.08a11.36,11.36,0,0,0,1.43-.15c.64-.12.76-.28.77-.92,0-1.78.09-3.56.1-5.34q0-4.32,0-8.63c0-.89,0-1.77-.08-2.66a.87.87,0,0,0-.78-1,17.3,17.3,0,0,0-1.78-.19c-.32,0-.65,0-1,0a.86.86,0,0,1-.91-1c0-.56.37-.86,1-.86,1.24,0,2.49.06,3.74.06l15.77-.06c.59,0,1.17,0,1.76,0a.91.91,0,0,1,.84.64c.52,1.27,1.07,2.53,1.61,3.8.32.75.1,1.13-.71,1.22a1.86,1.86,0,0,1-1.31-.51c-1.15-.84-2.31-1.68-3.48-2.51a4.32,4.32,0,0,0-2.6-.79l-6.4.17a.5.5,0,0,0-.54.46,8.82,8.82,0,0,0-.13,1.36c0,2.13,0,4.26,0,6.4A2.06,2.06,0,0,0,52.53,121.78Z"/><path class="cls-1" d="M87.42,117.38c-.09-.33-.17-.61-.26-.9a4.47,4.47,0,0,0-4-3.43,8.56,8.56,0,0,0-4.48.48,4.18,4.18,0,0,0-1.09.66,1.85,1.85,0,0,0-.15,2.88,10.4,10.4,0,0,0,2.22,1.55c1.89,1,3.83,1.86,5.73,2.83A17.43,17.43,0,0,1,90,124.67a4.77,4.77,0,0,1,1.41,2.38,4.34,4.34,0,0,1-1.31,4,8.64,8.64,0,0,1-4,2.25A20.73,20.73,0,0,1,79,134a43.88,43.88,0,0,1-6.14-.79,1.59,1.59,0,0,1-1.36-1.35c-.27-1.24-.59-2.47-.88-3.71-.24-1.06.16-1.55,1.26-1.58.78,0,.79,0,1.07.7a7,7,0,0,0,6.53,4.78,9,9,0,0,0,4.62-.66A3,3,0,0,0,86,128.8a2.62,2.62,0,0,0-.7-1.85,9.69,9.69,0,0,0-3-2.41c-1.69-.91-3.41-1.76-5.13-2.63a21.52,21.52,0,0,1-3.89-2.37,4.65,4.65,0,0,1-1.69-2.28,3.56,3.56,0,0,1,.87-3.54,7,7,0,0,1,3.09-1.82,22.46,22.46,0,0,1,7.56-.87,24.32,24.32,0,0,1,4.94.64c1,.23,1.24.48,1.36,1.5s.2,1.92.28,2.88c.06.78-.22,1.13-1,1.24C88.29,117.35,87.86,117.35,87.42,117.38Z"/><path class="cls-1" d="M115.26,117.14c-.1-.47-.16-.89-.28-1.28a3.77,3.77,0,0,0-3.17-2.66,12.12,12.12,0,0,0-9.55,1.94,7.51,7.51,0,0,0-3.1,5.71,10.59,10.59,0,0,0,1.1,6,9.09,9.09,0,0,0,6.71,4.79,15.22,15.22,0,0,0,8.78-1c.79-.33.89-.32,1.44.3l.69.77c-.92.42-1.79.86-2.69,1.2a20.33,20.33,0,0,1-8.4,1.13,16.46,16.46,0,0,1-6.15-1.43,11,11,0,0,1-6.36-6.85c-1.26-4.18-.06-7.72,3.15-10.59a16.25,16.25,0,0,1,8.09-3.7,31.79,31.79,0,0,1,10.21-.08,4,4,0,0,1,.75.21.93.93,0,0,1,.67.94c0,1.25,0,2.5,0,3.75,0,.49-.26.74-.85.84a2.9,2.9,0,0,1-.51,0Z"/><path class="cls-1" d="M107.52,29.72a5.9,5.9,0,1,1,5.9,5.87A5.88,5.88,0,0,1,107.52,29.72Zm3.14-3.26c1.23,0,2.41.05,3.59.14A1.7,1.7,0,0,1,115.83,28a1.84,1.84,0,0,1-.63,2,5.3,5.3,0,0,1-.51.36c.3.43.6.84.88,1.26s.55.86.83,1.3a4.28,4.28,0,0,0,1-4.86,4.39,4.39,0,0,0-8.35,1,4.09,4.09,0,0,0,1.58,4Zm5.44,6.64c-.44,0-.8,0-1.16,0a.42.42,0,0,1-.43-.25c-.34-.6-.72-1.2-1.08-1.8a1.13,1.13,0,0,0-1.22-.48v2.54h-1.49A4.24,4.24,0,0,0,116.1,33.1Zm-3.87-3.94c.57,0,1.1-.06,1.62-.13a.45.45,0,0,0,.41-.49c0-.29-.12-.5-.41-.53-.53-.06-1.06-.08-1.62-.12Z"/></g></g></svg>